<svg xmlns="http://www.w3.org/2000/svg" xmlns:xlink="http://www.w3.org/1999/xlink" viewBox="0 0 909 184">
  <defs>
    <linearGradient id="b" x1="46.2463492%" x2="46.2463492%" y1="14.7943919%" y2="100%">
      <stop offset="0%" stop-color="#FF8008"/>
      <stop offset="100%" stop-color="#2BC0E4"/>
    </linearGradient>
    <linearGradient id="c" x1="50%" x2="50%" y1="100%" y2="0%">
      <stop offset="0%" stop-color="#2BC0E4"/>
      <stop offset="100%" stop-color="#FF8008"/>
    </linearGradient>
    <linearGradient id="d" x1="50%" x2="50%" y1="100%" y2="0%">
      <stop offset="0%" stop-color="#2BC0E4"/>
      <stop offset="100%" stop-color="#FF8008"/>
    </linearGradient>
    <linearGradient id="e" x1="0%" x2="0%" y1="548.592554%" y2="-6796.12218%">
      <stop offset="0%" stop-color="#2BC0E4"/>
      <stop offset="100%" stop-color="#FF8008"/>
    </linearGradient>
    <path id="a" d="M162.767677 124V92.1184669c0-2.1602787.319865-3.9372822.959596-5.3310105.63973-1.3937282 1.548821-2.4738675 2.727272-3.2404181 1.178452-.7665505 2.575758-1.2891986 4.19192-1.5679442 1.616161-.2787457 3.400673-.4529617 5.353535-.5226481V64c-2.424242 0-4.461279.2961672-6.111111.8885017s-2.996633 1.3066203-4.040404 2.1428572c-1.043771.8362369-1.868687 1.7247387-2.474748 2.6655052-.60606.9407666-1.077441 1.7595819-1.414141 2.456446h-.20202v-6.1672474H146V124h16.767677Zm47.941227 2c6.127854 0 11.628996-1.745495 16.503425-5.236486 2.437214-1.675676 4.665525-3.752816 6.684931-6.231419 2.019407-2.478604 3.725457-5.358672 5.118151-8.640203h-17.756849c-1.18379 1.536036-2.576484 2.827703-4.178083 3.875-1.601598 1.047297-3.725456 1.570946-6.371575 1.570946-3.4121 0-6.388984-.960023-8.930651-2.880068-2.541666-1.920045-4.091038-4.625563-4.648116-8.116554h43.452055c.139269-.698198.243721-1.3440313.313356-1.9374998.069635-.5934685.104452-1.4836712.104452-2.6706081 0-4.3986486-.765982-8.535473-2.297945-12.410473-1.531964-3.875-3.655822-7.2438063-6.371576-10.1064189-2.715753-2.8626126-5.953767-5.1143018-9.714041-6.7550676C218.856164 64.8203829 214.782534 64 210.395548 64s-8.443208.8727477-12.168664 2.6182432c-3.725457 1.7454955-6.946062 4.0495496-9.661816 6.9121622-2.715753 2.8626126-4.822203 6.1790541-6.319349 9.9493243C180.748573 87.25 180 91.1599099 180 95.2094595c0 4.3288288.818208 8.3609235 2.454623 12.0962835 1.636416 3.735361 3.864726 6.999437 6.684932 9.79223 2.820205 2.792793 6.075628 4.974662 9.766267 6.545608 3.690639 1.570946 7.625 2.356419 11.803082 2.356419ZM224 89h-26c.206349-.8421053.56746-1.8421053 1.083333-3 .515873-1.1578947 1.289683-2.2631579 2.321429-3.3157895 1.031746-1.0526316 2.338624-1.9298245 3.920635-2.6315789C206.907407 79.3508772 208.798942 79 211 79s4.092593.3508772 5.674603 1.0526316c1.582011.7017544 2.888889 1.5789473 3.920635 2.6315789S222.400794 84.8421053 222.916667 86c.515873 1.1578947.876984 2.1578947 1.083333 3Zm52.862069 37c1.655172 0 3.327586-.15683 5.017241-.470489 1.689656-.313659 3.293104-.818999 4.810345-1.51602 1.517242-.697021 2.862069-1.568297 4.034483-2.613828 1.172414-1.045531 2.137931-2.265318 2.896552-3.659359h.206896v6.273187H311V65.9865093h-17.172414v6.168634h-.206896c-.551724-.906127-1.275862-1.8296796-2.172414-2.7706576-.896552-.9409781-2.034483-1.8122541-3.413793-2.613828-1.379311-.8015739-3-1.4637437-4.862069-1.9865093S279.206897 64 276.862069 64c-3.862069 0-7.534483.7144463-11.017241 2.143339-3.482759 1.4288926-6.534483 3.4851039-9.155173 6.168634-2.620689 2.6835301-4.724138 5.9421023-6.310345 9.7757167S248 90.207982 248 94.9477234c0 4.1821248.655172 8.1377176 1.965517 11.8667796 1.310345 3.729061 3.189655 7.022484 5.637931 9.880269 2.448276 2.857786 5.465518 5.123103 9.051724 6.795953C268.241379 125.163575 272.310345 126 276.862069 126Zm3.087389-16c-2.56077 0-4.717208-.512367-6.469314-1.537102-1.752105-1.024735-3.184115-2.29682-4.296028-3.816255-1.111914-1.519435-1.920578-3.127208-2.425993-4.8233214C266.252708 98.1272085 266 96.5724382 266 95.1590106c0-1.6961131.269555-3.4275618.808664-5.1943463.53911-1.7667844 1.381468-3.3922261 2.527076-4.8763251 1.145608-1.4840989 2.577617-2.7031802 4.296029-3.6572438C275.350181 80.4770318 277.422383 80 279.848375 80c2.358605 0 4.430807.4416961 6.216607 1.3250883 1.7858.8833923 3.268351 2.04947 4.447653 3.4982333 1.179302 1.4487632 2.055355 3.0565371 2.628159 4.8233215.572804 1.7667845.859206 3.5335689.859206 5.3003534 0 1.4134275-.23586 3.0035335-.707581 4.770318-.471721 1.7667845-1.263538 3.4098935-2.375451 4.9293285-1.111914 1.519435-2.560771 2.79152-4.346571 3.816255-1.7858 1.024735-3.99278 1.537102-6.620939 1.537102Zm70.861766 16c3.873016 0 7.486678-.628378 10.840987-1.885135 3.354308-1.256757 6.328231-2.967342 8.921769-5.131757 2.593537-2.164414 4.789399-4.712838 6.587585-7.64527 1.798186-2.932433 3.077664-6.039415 3.838435-9.320946h-17.532313c-.484127.907658-1.071995 1.815315-1.763605 2.722973-.69161.907658-1.521542 1.72804-2.489796 2.461149-.968254.733108-2.126701 1.344031-3.47534 1.83277-1.34864.488739-2.922053.733108-4.720239.733108-2.074829 0-3.942176-.366554-5.60204-1.099662-1.659864-.733108-3.094955-1.762951-4.305272-3.089527-1.210318-1.326577-2.143991-2.897523-2.801021-4.712838-.657029-1.8153155-.985544-3.7702704-.985544-5.864865s.328515-4.0670045.985544-5.9172297c.65703-1.8502253 1.590703-3.4386262 2.801021-4.7652027 1.210317-1.3265766 2.645408-2.356419 4.305272-3.0895271 1.659864-.7331081 3.527211-1.0647522 5.60204-.9949324 1.798186 0 3.371599.2443694 4.720239.7331081 1.348639.4887388 2.507086 1.1171171 3.47534 1.8851352.968254.768018 1.798186 1.6407657 2.489796 2.6182432.69161.9774775 1.279478 1.9549549 1.763605 2.9324324h17.428572c-.760771-3.5608108-2.05754-6.8423423-3.890307-9.8445946-1.832766-3.0022522-4.080498-5.5681306-6.743197-7.6976351-2.662698-2.1295045-5.688492-3.8051802-9.077381-5.027027C357.796485 64.6109234 354.200113 64 350.396259 64c-4.287982 0-8.28203.8029279-11.982143 2.4087838-3.700114 1.6058558-6.9161 3.8051802-9.64796 6.597973-2.731859 2.7927927-4.87585 6.0743243-6.431972 9.8445946C320.778061 86.6216216 320 90.6362613 320 94.8952703c0 4.3288288.795351 8.3783787 2.386054 12.1486487s3.751985 7.069257 6.483844 9.896959c2.731859 2.827703 5.982426 5.044482 9.751701 6.650338C342.390873 125.197072 346.454082 126 350.811224 126Zm60.896093-2V79.3608108H420V66.25h-8.292683V47H394.5v19.25H386v13.1108108h8.5V124h17.207317ZM450 102V85h-29v17h29Zm23.14554 22V93.1637631c0-.836237.051643-1.9860628.154929-3.4494774.103287-1.4634146.464789-2.891986 1.084508-4.2857143.619718-1.3937282 1.583724-2.5958188 2.892018-3.6062717 1.308295-1.010453 3.167449-1.5156795 5.577465-1.5156795 2.134585 0 3.787168.4878049 4.957747 1.4634146 1.170579.9756098 2.014084 2.1254356 2.530516 3.4494774.516432 1.3240418.826291 2.6655052.929577 4.0243902.103287 1.3588851.15493 2.4216028.15493 3.1881533V124h17.14554V92.3275261c0-.8362369.051643-1.9163763.15493-3.2404181.103286-1.3240418.447574-2.6480836 1.032863-3.9721254.58529-1.3240418 1.514867-2.456446 2.788733-3.3972126 1.273865-.9407665 3.115806-1.4111498 5.525821-1.4111498 2.203443 0 3.890454.4529617 5.061033 1.358885 1.170579.9059234 2.031299 2.0034843 2.58216 3.292683.550861 1.2891986.877934 2.6829268.981221 4.1811846.103286 1.4982579.154929 2.8397213.154929 4.0243903V124H544V92.3275261c0-3.2055749-.068858-5.9059233-.206573-8.1010453-.137715-2.1951219-.43036-4.1289198-.877934-5.8013937-.447574-1.6724739-1.084507-3.1533101-1.910798-4.4425087-.826291-1.2891986-1.893584-2.6655052-3.201878-4.1289199-1.170579-1.2543554-2.42723-2.2648083-3.769953-3.0313588-1.342723-.7665506-2.685446-1.3588851-4.028169-1.7770035-1.342723-.4181185-2.633803-.6968641-3.87324-.836237C524.892019 64.0696864 523.755869 64 522.723005 64c-4.406886 0-8.090767 1.010453-11.051643 3.0313589-2.960877 2.0209059-5.336464 4.4599303-7.126761 7.3170732-1.170579-2.1602788-2.444445-3.9024391-3.821596-5.2264809-1.377152-1.3240418-2.788733-2.369338-4.234742-3.1358885-1.446009-.7665505-2.909233-1.2891986-4.389671-1.5679442C490.618153 64.1393728 489.258216 64 488.018779 64c-2.685446 0-4.957746.3135889-6.816901.9407666-1.859155.6271777-3.391236 1.3763066-4.596244 2.2473867-1.205008.8710801-2.1518 1.7595819-2.840376 2.6655052-.688576.9059234-1.205008 1.6724739-1.549296 2.2996516h-.206572v-6.1672474H456V124h17.14554Zm109.716529 2c1.655172 0 3.327586-.15683 5.017241-.470489 1.689656-.313659 3.293104-.818999 4.810345-1.51602 1.517242-.697021 2.862069-1.568297 4.034483-2.613828 1.172414-1.045531 2.137931-2.265318 2.896552-3.659359h.206896v6.273187H617V65.9865093h-17.172414v6.168634h-.206896c-.551724-.906127-1.275862-1.8296796-2.172414-2.7706576-.896552-.9409781-2.034483-1.8122541-3.413793-2.613828-1.379311-.8015739-3-1.4637437-4.862069-1.9865093S585.206897 64 582.862069 64c-3.862069 0-7.534483.7144463-11.017241 2.143339-3.482759 1.4288926-6.534483 3.4851039-9.155173 6.168634-2.620689 2.6835301-4.724138 5.9421023-6.310345 9.7757167S554 90.207982 554 94.9477234c0 4.1821248.655172 8.1377176 1.965517 11.8667796 1.310345 3.729061 3.189655 7.022484 5.637931 9.880269 2.448276 2.857786 5.465518 5.123103 9.051724 6.795953C574.241379 125.163575 578.310345 126 582.862069 126Zm2.087389-16c-2.56077 0-4.717208-.512367-6.469314-1.537102-1.752105-1.024735-3.184115-2.29682-4.296028-3.816255-1.111914-1.519435-1.920578-3.127208-2.425993-4.8233214C571.252708 98.1272085 571 96.5724382 571 95.1590106c0-1.6961131.269555-3.4275618.808664-5.1943463.53911-1.7667844 1.381468-3.3922261 2.527076-4.8763251 1.145608-1.4840989 2.577617-2.7031802 4.296029-3.6572438C580.350181 80.4770318 582.422383 80 584.848375 80c2.358605 0 4.430807.4416961 6.216607 1.3250883 1.7858.8833923 3.268351 2.04947 4.447653 3.4982333 1.179302 1.4487632 2.055355 3.0565371 2.628159 4.8233215.572804 1.7667845.859206 3.5335689.859206 5.3003534 0 1.4134275-.23586 3.0035335-.707581 4.770318-.471721 1.7667845-1.263538 3.4098935-2.375451 4.9293285-1.111914 1.519435-2.560771 2.79152-4.346571 3.816255-1.7858 1.024735-3.99278 1.537102-6.620939 1.537102Zm64.757859 14V79.3608108H658V66.25h-8.292683V47H632.5v19.25H624v13.1108108h8.5V124h17.207317Zm44.103907 2c3.873016 0 7.486678-.628378 10.840987-1.885135 3.354308-1.256757 6.328231-2.967342 8.921769-5.131757 2.593537-2.164414 4.789399-4.712838 6.587585-7.64527 1.798186-2.932433 3.077664-6.039415 3.838435-9.320946h-17.532313c-.484127.907658-1.071995 1.815315-1.763605 2.722973-.69161.907658-1.521542 1.72804-2.489796 2.461149-.968254.733108-2.126701 1.344031-3.47534 1.83277-1.34864.488739-2.922053.733108-4.720239.733108-2.074829 0-3.942176-.366554-5.60204-1.099662-1.659864-.733108-3.094955-1.762951-4.305272-3.089527-1.210318-1.326577-2.143991-2.897523-2.801021-4.712838-.657029-1.8153155-.985544-3.7702704-.985544-5.864865s.328515-4.0670045.985544-5.9172297c.65703-1.8502253 1.590703-3.4386262 2.801021-4.7652027 1.210317-1.3265766 2.645408-2.356419 4.305272-3.0895271 1.659864-.7331081 3.527211-1.0647522 5.60204-.9949324 1.798186 0 3.371599.2443694 4.720239.7331081 1.348639.4887388 2.507086 1.1171171 3.47534 1.8851352.968254.768018 1.798186 1.6407657 2.489796 2.6182432.69161.9774775 1.279478 1.9549549 1.763605 2.9324324h17.428572c-.760771-3.5608108-2.05754-6.8423423-3.890307-9.8445946-1.832766-3.0022522-4.080498-5.5681306-6.743197-7.6976351-2.662698-2.1295045-5.688492-3.8051802-9.077381-5.027027C700.796485 64.6109234 697.200113 64 693.396259 64c-4.287982 0-8.28203.8029279-11.982143 2.4087838-3.700114 1.6058558-6.9161 3.8051802-9.64796 6.597973-2.731859 2.7927927-4.87585 6.0743243-6.431972 9.8445946C663.778061 86.6216216 663 90.6362613 663 94.8952703c0 4.3288288.795351 8.3783787 2.386054 12.1486487s3.751985 7.069257 6.483844 9.896959c2.731859 2.827703 5.982426 5.044482 9.751701 6.650338C685.390873 125.197072 689.454082 126 693.811224 126Zm56.305508-2V91.9513514c0-.6936937.051556-1.6822073.154669-2.9655406.103113-1.2833333.446822-2.5493243 1.031128-3.797973.584306-1.2486486 1.529507-2.3412162 2.835603-3.2777027s3.162127-1.4047297 5.568094-1.4047297c2.268482 0 4.038586.5029279 5.310311 1.5087838 1.271725 1.0058558 2.182555 2.1677928 2.73249 3.4858108.549935 1.318018.876459 2.6533784.979572 4.0060811.103113 1.3527027.154669 2.3759009.154669 3.0695946V124H786V91.7432432c0-2.5666666-.051556-4.8385135-.154669-6.8155405-.103113-1.977027-.34371-3.797973-.72179-5.4628378-.378081-1.6648649-.91083-3.190991-1.598249-4.5783784-.687419-1.3873874-1.649806-2.8094595-2.88716-4.2662162-.893644-1.1099099-1.959144-2.0637388-3.196498-2.8614865-1.237354-.7977478-2.54345-1.4567568-3.918288-1.977027-1.374838-.5202703-2.784046-.9018018-4.227626-1.1445946-1.44358-.2427928-2.852789-.3641892-4.227627-.3641892-3.093385 0-5.963359.5549549-8.609922 1.6648648-2.646563 1.1099099-4.691634 2.9828829-6.135214 5.618919h-.206225V47H733v77h17.116732Zm71.917438 2c7.978262 0 14.467133-2.658297 19.466612-7.974892C846.500261 112.708514 849 105.06811 849 95.1038961c0-10.633189-2.769746-18.3088023-8.309238-23.0268398C835.151269 67.3590188 828.758207 65 821.511576 65c-8.779573 0-15.608129 2.7991342-20.48567 8.3974026-3.135561 3.5209235-4.89496 6.9890332-5.278195 10.404329h15.207474c.80131-1.6900433 1.724559-3.0103896 2.769746-3.961039C815.641108 78.0802309 818.132137 77.2 821.19802 77.2c2.891684 0 5.365294.7217893 7.420829 2.165368 3.379439 2.3238095 5.173677 6.3728715 5.382714 12.1471861H795.01608c-.069679 4.9645022.087099 8.7670999.470334 11.4077919.661952 4.506782 2.107794 8.467821 4.337527 11.883117 2.47361 3.873016 5.609171 6.70736 9.406685 8.503031C813.02814 125.102165 817.295987 126 822.03417 126Zm.439871-13c-3.149737 0-5.788939-1.017391-7.917608-3.052174C812.427765 107.913043 811.242287 104.930435 811 101h23c-.484575 3.686957-1.670053 6.608696-3.556433 8.765217C828.557186 111.921739 825.900677 113 822.474041 113ZM896 124v-13.167568h-22.59322L896 79.1675676V66h-43v13.1675676h24.363196L853 112.086486V124h43Z"/>
  </defs>
  <g fill="none" fill-rule="evenodd">
    <g fill-rule="nonzero">
      <use xlink:href="#a" fill="#FF5773"/>
      <use xlink:href="#a" fill="url(#b)"/>
    </g>
    <g fill-rule="nonzero" stroke-width="4">
      <path stroke="url(#c)" d="M45.8763094.7582392C44.0001963 3.22354384 0 61.384683 0 86.8432126c0 16.3702844 17.7487122 35.8980254 32.6366361 49.3959944C36.8756966 140.084458 42.1877573 142 47.5 142c5.3122427 0 10.6317624-1.915542 14.8633639-5.760793C77.2512878 122.742146 95 103.214405 95 86.8432126 95 61.3810506 50.9929815 3.22372547 49.1236906.7582392c-.774605-1.0109856-2.4731036-1.0109856-3.2476541 0h.0002729ZM59.6339266 134.248819c-6.9170119 6.277765-17.3514786 6.277765-24.2678532 0C23.669143 123.620917 4.04255319 103.454126 4.04255319 87.7471939c0-21.5116683 35.37757001-70.7021383 43.45744681-81.66147961C55.586978 17.0368607 90.9574468 66.2355256 90.9574468 87.7471939c0 15.7032901-19.6275002 35.8737231-31.3235202 46.5016251Z" transform="translate(17 21)"/>
      <path stroke="url(#d)" d="M46.40716 62.7568889C44.4235173 65.4254898 27 89.133611 27 100.195169c0 1.865547.4741127 3.908751 1.4188128 6.058568C31.856163 114.117359 39.3584324 119 48 119c8.6415676 0 16.1443725-4.87882 19.5811872-12.746263C68.525932 104.100372 69 102.060716 69 100.195169c0-11.0579193-17.4170024-34.7665863-19.40716-37.4382801-.7599724-1.0091852-2.4263858-1.0091852-3.1863047 0h.0006247ZM65 101.118804c0 1.302747-.3592472 2.791575-1.0707593 4.434233C61.1424272 111.966449 55.0386886 115.946429 48 115.946429c-7.0419923 0-13.1460881-3.979797-15.9292407-10.393392C31.3592294 103.910288 31 102.425033 31 101.118804c0-7.5156934 11.1022522-24.6980474 17.0069646-33.0116611 5.8910511 8.3066506 16.9926782 25.4923946 16.9926782 33.0116611H65Z" transform="translate(17 21)"/>
    </g>
    <path stroke="url(#e)" stroke-linecap="square" stroke-width="10" d="M798 137.4975h93"/>
  </g>
</svg>
